#!OML:ASF H:\ManfredObstacles\Project 1\Capture day 2\Session 1\male.ASF
:FULLY-SPECIFIED
:DEGREES
312
root 2.134 7.92902 6.7703 -174.148 -11.0282 -182.428
lowerback 44.5985 3.96632 0.948086
upperback 17.917 -2.14121 5.74915
thorax -0.501682 -4.28009 6.45275
lowerneck -31.0144 -0.0257604 -0.469298
upperneck 26.6419 -1.66627 4.38764
head 14.3716 -0.173217 1.50997
rclavicle -7.95139e-016 -2.72335e-014
rhumerus 15.4932 11.4402 -62.6413
rradius 49.7661
rwrist 26.275
rhand -19.8703 -12.8956
rfingers 7.12502
rthumb 6.46505 -42.7769
lclavicle -7.95139e-016 -2.72335e-014
lhumerus 15.0067 -7.79276 76.2478
lradius 49.1689
lwrist -33.9846
lhand 3.20756 14.5832
lfingers 7.12502
lthumb 28.6589 42.4051
rfemur -109.425 -0.150341 22.6009
rtibia 119.879
rfoot -12.2417 -24.135
rtoes -11.641
lfemur -65.1223 27.6002 -22.4837
ltibia 148.093
lfoot -9.30696 31.5068
ltoes -12.8343
313
root 2.1626 7.94425 6.67056 -173.787 -11.3706 -182.737
lowerback 44.7227 3.83328 0.611227
upperback 17.7547 -2.3833 6.0617
thorax -0.691024 -4.42299 7.06988
lowerneck -30.9657 0.128524 -0.81262
upperneck 26.4967 -1.22319 4.30746
head 14.2821 -0.0303901 1.62416
rclavicle 5.00937e-014 -3.3197e-014
rhumerus 16.6417 11.6168 -62.5919
rradius 49.1075
rwrist 25.978
rhand -19.246 -13.2887
rfingers 7.12502
rthumb 7.06773 -43.1507
lclavicle 5.00937e-014 -3.3197e-014
lhumerus 15.0663 -6.75232 76.7461
lradius 49.189
lwrist -33.9036
lhand 2.65161 14.8248
lfingers 7.12502
lthumb 28.1276 42.7352
rfemur -109.46 -0.304059 22.5191
rtibia 120.468
rfoot -13.0014 -24.3334
rtoes -10.6469
lfemur -64.85 27.8763 -22.0671
ltibia 147.92
lfoot -8.97574 30.7764
ltoes -12.553
314
root 2.19 7.96827 6.57131 -173.405 -11.6714 -183.061
lowerback 44.8418 3.69793 0.690354
upperback 17.6433 -2.44784 6.13433
thorax -0.83701 -4.42612 7.14412
lowerneck -30.9974 0.165452 -0.651275
upperneck 26.2839 -1.20847 4.25884
head 14.1947 -0.011606 1.5775
rclavicle -3.73715e-014 1.07344e-014
rhumerus 17.4281 10.9777 -63.0121
rradius 48.3639
rwrist 25.8387
rhand -18.6686 -13.6602
rfingers 7.12502
rthumb 7.625 -43.5027
lclavicle -3.73715e-014 1.07344e-014
lhumerus 15.4742 -6.58415 76.8502
lradius 49.1295
lwrist -33.6179
lhand 2.19894 15.0776
lfingers 7.12502
lthumb 27.6948 43.0584
rfemur -109.42 -0.441197 22.422
rtibia 120.977
rfoot -13.8183 -24.4854
rtoes -9.64534
lfemur -64.593 28.1897 -21.6481
ltibia 147.669
lfoot -8.63033 29.9162
ltoes -12.1992
315
root 2.21603 7.99998 6.47239 -172.992 -11.9319 -183.396
lowerback 44.9664 3.53983 0.777131
upperback 17.5211 -2.53562 6.18726
thorax -0.993831 -4.43755 7.20262
lowerneck -30.9951 0.20328 -0.51959
upperneck 26.0635 -1.17966 4.21356
head 14.0974 0.00966568 1.5397
rclavicle 7.95139e-015 -3.97569e-015
rhumerus 18.2095 10.4273 -63.4477
rradius 47.5602
rwrist 25.714
rhand -18.1595 -14.0219
rfingers 7.12502
rthumb 8.11644 -43.846
lclavicle 7.95139e-015 -3.97569e-015
lhumerus 15.8481 -6.38877 76.9565
lradius 48.9944
lwrist -33.4213
lhand 1.81543 15.2856
lfingers 7.12502
lthumb 27.3281 43.3247
rfemur -109.323 -0.554094 22.307
rtibia 121.408
rfoot -14.6676 -24.6068
rtoes -8.67727
lfemur -64.3688 28.5406 -21.2324
ltibia 147.349
lfoot -8.27067 28.9135
ltoes -11.8189
316
root 2.24044 8.03884 6.3735 -172.544 -12.1521 -183.739
lowerback 45.0627 3.3888 0.890966
upperback 17.4154 -2.60733 6.22038
thorax -1.12688 -4.4389 7.21751
lowerneck -31.0402 0.218047 -0.373943
upperneck 25.8726 -1.20251 4.19265
head 14.0246 0.0140135 1.49994
rclavicle 1.51076e-014 0
rhumerus 18.9464 9.85894 -63.9286
rradius 46.7178
rwrist 25.6428
rhand -17.8119 -14.3466
rfingers 7.12502
rthumb 8.45191 -44.1575
lclavicle 1.51076e-014 0
lhumerus 16.2641 -6.27186 77.0325
lradius 48.7845
lwrist -33.2888
lhand 1.4963 15.4575
lfingers 7.12502
lthumb 27.0228 43.5444
rfemur -109.173 -0.636929 22.1697
rtibia 121.761
rfoot -15.5244 -24.7222
rtoes -7.79555
lfemur -64.1781 28.9307 -20.826
ltibia 146.965
lfoot -7.96794 27.7711
ltoes -11.5449
317
root 2.26348 8.08345 6.27443 -172.055 -12.3362 -184.078
lowerback 45.122 3.27039 0.899326
upperback 17.279 -2.66447 6.30297
thorax -1.28761 -4.4375 7.33664
lowerneck -30.9215 0.248702 -0.263208
upperneck 25.6874 -1.18489 4.15742
head 13.9213 0.0266156 1.46686
rclavicle 4.77083e-015 -5.68524e-014
rhumerus 19.6049 9.50419 -64.3425
rradius 45.8638
rwrist 25.5661
rhand -17.7192 -14.6076
rfingers 7.12502
rthumb 8.5413 -44.4148
lclavicle 4.77083e-015 -5.68524e-014
lhumerus 16.5653 -6.09141 77.1906
lradius 48.4962
lwrist -33.3102
lhand 1.22407 15.5594
lfingers 7.12502
lthumb 26.7623 43.6864
rfemur -108.988 -0.688066 22.0229
rtibia 122.045
rfoot -16.3854 -24.8414
rtoes -6.98727
lfemur -64.0326 29.3581 -20.4252
ltibia 146.533
lfoot -7.76057 26.5042
ltoes -11.4503
318
root 2.28511 8.13357 6.17499 -171.531 -12.4901 -184.415
lowerback 45.1384 3.14556 0.981246
upperback 17.1621 -2.70028 6.34427
thorax -1.41806 -4.4176 7.36151
lowerneck -30.8968 0.242052 -0.128958
upperneck 25.5667 -1.25568 4.17325
head 13.8675 0.0119895 1.43448
rclavicle 7.95139e-016 -3.89618e-014
rhumerus 20.1611 9.13025 -64.8131
rradius 45.0394
rwrist 25.5589
rhand -17.8601 -14.8498
rfingers 7.12502
rthumb 8.40533 -44.6626
lclavicle 7.95139e-016 -3.89618e-014
lhumerus 16.9261 -6.05776 77.2844
lradius 48.1234
lwrist -33.373
lhand 0.977831 15.6096
lfingers 7.12502
lthumb 26.5266 43.7724
rfemur -108.772 -0.717569 21.8689
rtibia 122.269
rfoot -17.2372 -24.9757
rtoes -6.34628
lfemur -63.9367 29.8229 -20.0646
ltibia 146.054
lfoot -7.54741 25.1614
ltoes -11.3709
